<svg xmlns="http://www.w3.org/2000/svg" version="1.1" xmlns:xlink="http://www.w3.org/1999/xlink" xmlns:svgjs="http://svgjs.com/svgjs" width="1400" height="1200" preserveAspectRatio="none" viewBox="0 0 1400 1200"><g mask="url(&quot;#SvgjsMask1212&quot;)" fill="none"><rect width="1400" height="1200" x="0" y="0" fill="url(#SvgjsLinearGradient1213)"></rect><circle r="11.86" cx="346.65000000000003" cy="898.09" filter="url(#SvgjsFilter1214)" fill="rgba(51, 121, 194, 0.58)"></circle><circle r="14.135" cx="1381.535" cy="293.16499999999996" filter="url(#SvgjsFilter1214)" fill="rgba(51, 121, 194, 0.58)"></circle><circle r="11.19" cx="837.99" cy="406.5" filter="url(#SvgjsFilter1214)" fill="rgba(51, 121, 194, 0.58)"></circle><circle r="14.445" cx="1303.955" cy="86.255" filter="url(#SvgjsFilter1214)" fill="rgba(51, 121, 194, 0.58)"></circle><circle r="16.04" cx="1244.83" cy="932.77" filter="url(#SvgjsFilter1214)" fill="rgba(51, 121, 194, 0.58)"></circle><circle r="15.79" cx="314.39000000000004" cy="858.15" filter="url(#SvgjsFilter1214)" fill="rgba(51, 121, 194, 0.58)"></circle><circle r="19.115" cx="73.195" cy="660.085" filter="url(#SvgjsFilter1214)" fill="rgba(51, 121, 194, 0.58)"></circle><circle r="17.51" cx="1063.79" cy="754.84" filter="url(#SvgjsFilter1214)" fill="rgba(51, 121, 194, 0.58)"></circle><circle r="13.26" cx="894.21" cy="358.44" filter="url(#SvgjsFilter1214)" fill="rgba(51, 121, 194, 0.58)"></circle><circle r="17.19" cx="813.45" cy="466.4" filter="url(#SvgjsFilter1214)" fill="rgba(51, 121, 194, 0.58)"></circle><circle r="16.84" cx="157.93" cy="223.3" filter="url(#SvgjsFilter1214)" fill="rgba(51, 121, 194, 0.58)"></circle><circle r="14.4" cx="324.46999999999997" cy="784.9399999999999" filter="url(#SvgjsFilter1214)" fill="rgba(51, 121, 194, 0.58)"></circle><circle r="18.545" cx="575.485" cy="142.735" filter="url(#SvgjsFilter1214)" fill="rgba(51, 121, 194, 0.58)"></circle><circle r="15.135" cx="482.155" cy="1166.655" filter="url(#SvgjsFilter1214)" fill="rgba(51, 121, 194, 0.58)"></circle><circle r="12.56" cx="443.06" cy="787.91" filter="url(#SvgjsFilter1214)" fill="rgba(51, 121, 194, 0.58)"></circle><circle r="18.515" cx="680.5649999999999" cy="726.255" filter="url(#SvgjsFilter1214)" fill="rgba(51, 121, 194, 0.58)"></circle><circle r="18.715" cx="1118.905" cy="767.085" filter="url(#SvgjsFilter1214)" fill="rgba(51, 121, 194, 0.58)"></circle><circle r="13.16" cx="925.93" cy="1191.8000000000002" filter="url(#SvgjsFilter1214)" fill="rgba(51, 121, 194, 0.58)"></circle><circle r="18.22" cx="358.03999999999996" cy="77.3" filter="url(#SvgjsFilter1214)" fill="rgba(51, 121, 194, 0.58)"></circle><circle r="18.1" cx="646.5400000000001" cy="1134.9599999999998" filter="url(#SvgjsFilter1214)" fill="rgba(51, 121, 194, 0.58)"></circle><path d="M515.5 592.5L496.7 640.4 483.8 646.5 458.2 627.8 459.5 613.3 499.9 581.2C500.3 580.7 500.3 580.7 500.6 580.1 501.4 579.1 501.6 577.8 500.5 576.2 498.9 575.1 497.6 574.8 496 576L460.8 604.2 463.1 582 478.5 569.4C478.5 569.4 478.8 568.9 478.8 568.9 479.6 567.9 479.8 566.5 478.6 564.9 478 563.7 475.8 563.6 474.2 564.7L463.8 572.6 465.7 556.2C465.9 554.9 464.8 553.3 462.9 552.7S459.6 554.1 459 555.9L457.5 571.8 449.2 561.9C448.1 560.3 445.9 560.2 444.2 561.4 443.5 562.4 442.9 564.2 444.1 565.9L456.7 581.2 454 603.9 425.8 568.7C424.7 567.1 422.4 567 421.2 567.7 420.1 569.2 419.5 571 420.6 572.6L453.2 612.5 451.5 627.5 423.2 639.9 411.1 631.1 402.7 580.3C402.4 578.6 400.9 577.5 399.2 577.8S396.3 579.6 396.6 581.3L404 626 385.4 612.4 382.5 593.3C382.2 591.6 380.7 590.5 378.4 590.4S375.6 592.2 375.9 593.9L378.4 607.3 364.8 597.4C363.3 596.3 361.2 597.1 360.1 598.6 359 600.1 359.3 601.8 360.8 602.9L374.4 612.8 361.3 614.9C359.1 614.8 358 616.3 358.8 618.4 359 620.1 360.5 621.2 362.3 621L381.4 618 400 631.5 355.2 638.1C353.4 638.4 352 640.4 352.2 642.1S354 645 355.8 644.7L407.1 636.7 419.1 645.5 415.6 676.8 402.2 682.4 354.3 663.6C352.4 663 350.8 664.2 349.7 665.7 349.1 667.6 350.2 669.2 351.7 670.3L393.9 686.4 373.5 695.4 355 688C353.1 687.4 351.5 688.6 350.4 690.1 350.2 691.4 350.9 693.5 352.8 694.1L364.7 699 349.7 705.8C348.5 706.4 347.9 708.3 348.2 710 349.3 711.6 351.2 712.2 352.4 711.6L367.4 704.8 362.7 717.5C362.5 718.9 363.3 721 364.6 721.2 366.1 722.3 367.4 721.7 368.5 720.2 368.5 720.2 368.8 719.7 368.8 719.7L376.2 701.2 396.6 692.2 380.5 734.3C379.9 736.2 380.2 738 382 738.6 383.9 739.2 385.1 738.5 385.9 737.5 386.2 737 386.2 737 386.2 737L404.9 688.2 418.2 682.6 443.9 701.3 442.1 715.3 401.8 748.4C400.6 749 400.5 751.3 401.1 752.5 402.3 754.1 404.5 754.2 406.1 753L441.3 724.8 439 747 423.6 759.7C422 760.8 421.4 762.7 422.9 763.8 424.1 765.4 426.3 765.5 427.6 764.8L437.8 756.1 435.9 772.4C436.2 774.2 437.3 775.8 439.2 776.4 440 776.2 441.3 775.6 442 774.6 442.4 774.1 442.4 774.1 442.2 773.2L444.1 756.9 452.9 767.1C454 768.7 455.7 768.4 457 767.8 457.3 767.3 457.3 767.3 457.7 766.8 458.4 765.8 458.7 764.4 458 763.2L445.4 747.8 447.7 725.6 475.9 760.8C477.4 761.9 479.3 762.5 480.4 761 481.3 760.9 481.3 760.9 481.6 760.4 482.4 759.4 482.1 757.6 481.5 756.4L448.4 716.1 450.2 702 478.9 689.1 490.5 697.5 498.5 748.8C498.8 750.6 500.8 752 502.6 751.7S505.8 749.5 505.5 747.7L498.1 703 516.1 716.2 519.6 735.7C519.9 737.5 521.4 738.6 523.2 738.3 524.9 738 526 736.5 525.7 734.8L523.7 721.7 537.3 731.6C538.3 732.4 540.5 732.4 541.6 730.9 542.7 729.4 542.3 726.8 541.3 726.1L527.7 716.2 540.8 714.1C541.6 714 542.5 713.9 542.9 713.4 543.6 712.4 543.5 711.5 543.3 710.6 543.1 708.9 541.5 707.8 539.8 708.1L520.2 710.7 502.1 697.5 546.9 690.9C547.8 690.8 548.2 690.3 548.9 689.3 549.3 688.8 549.6 688.3 549.5 687.4 549.2 685.7 547.2 684.2 545.5 684.5L494.5 692 483 683.6 486.2 652.8 499.4 646.3 547.8 665.4C549.2 665.6 550.9 665.3 551.7 664.3 552 663.8 552 663.8 551.5 663.5 552.6 662 551.9 659.9 550 659.3L507.8 643.2 528.6 633.7 547.1 641C548.5 641.2 549.7 640.6 550.5 639.6 550.5 639.6 550.8 639.1 550.8 639.1 551.9 637.6 551.2 635.5 549.3 634.9L536.5 630.2 551.5 623.4C552.4 623.3 552.7 622.8 553.1 622.3 553.8 621.3 554.1 619.9 553.6 619.5 552.8 617.4 550.9 616.8 549.2 617.1L534.2 623.9 539 612C539.6 610.1 538.8 608 537 607.4 535.6 607.2 533.5 608 533.3 609.3L525.9 627.8 505.5 636.8 521.6 594.7C522.2 592.8 521.1 591.2 519.6 590.1 518.2 589.9 516.1 590.6 515.5 592.5ZM457.2 635.5L476.8 649.8 479.8 652 479.5 655.6 476.9 679.2 476.3 683.3 472.9 684.7 451.3 694.3 447.9 695.7 444.9 693.5 425.3 679.2 422.3 677 422.6 673.4 425.2 649.9 425.5 646.2 429.2 644.3 450.8 634.7 454.2 633.3 457.2 635.5Z" fill="rgba(51, 121, 194, 0.58)"></path><path d="M1016 170L1010.3 159.1 1018.5 159.2C1019.4 159.3 1020.3 158.5 1020.6 157.3 1020.4 156.2 1019.6 155.3 1018.7 155.2L1007.9 154.9 1002.7 144.9 1024.6 145.6C1026 145.5 1027 144.7 1026.7 143.7 1027 142.5 1026.2 141.5 1024.8 141.6L1000.6 140.8 995.6 131.8 1008.1 111.6 1017.1 111.7 1029.1 134.6C1029.4 134.8 1029.7 135 1030.1 135.2 1030.4 135.4 1031.3 135.5 1031.8 135.4 1033.1 134.8 1033.4 133.6 1032.6 132.7L1021.7 111.8 1032.8 112.2 1038.7 122.7C1038.5 123 1038.8 123.3 1039.1 123.5 1039.8 123.9 1040.7 123.9 1041.4 123.5 1042.1 123 1042.4 121.8 1042.2 120.8L1037.3 112.3 1051.3 112.7C1052.1 112.7 1053.1 111.9 1053.4 110.7 1053.1 109.7 1052.3 108.7 1051.4 108.7L1038.4 108.4 1042.7 101.4C1043.3 100.4 1042.7 99.2 1042 98.7 1041 98.1 1039.6 98.2 1039 99.2L1033.5 108.1 1022.4 107.7 1033.8 89.1C1034.4 88.1 1034.1 87.1 1033.2 86.4 1032.2 85.8 1031.1 86.1 1030.5 87.1L1017.8 107.6 1008.2 107.6 997 86.6 1001.7 78.9 1026.4 79.6C1027.6 79.8 1028.8 78.7 1028.5 77.6 1028.8 76.5 1027.8 75.8 1026.6 75.6L1004.1 75 1010 65.4 1021.2 65.8C1022 65.9 1023.2 64.8 1023.3 63.9S1022.2 61.9 1021 61.6L1012.5 61.4 1019.6 49.8C1020.2 48.8 1019.6 47.5 1018.7 46.9 1018 46.5 1016.6 46.6 1016 47.6L1008.8 59.2 1004.5 51.4C1004 50.7 1003 50.1 1001.7 50.7 1001 51.1 1000.5 52.7 1001 53.4L1006.4 63.1 1000.5 72.7 989.8 52.9C989.1 52 988.1 51.4 986.8 52 986 52.4 985.6 54 986 54.7L998 76.7 993.4 84.3 969.5 83.8 965.2 75.2 977.8 54.7C978.4 53.7 978.2 52.6 977.2 52 976.2 51.4 974.8 51.4 974.2 52.4L962.8 71 957.3 61.2 962.8 52.3C963.4 51.3 963.2 50.2 962.2 49.6 961.2 49 960.1 49.3 959.5 50.3L955.2 57.2 949.1 45.7C948.6 44.9 947.1 44.4 946.4 44.9 945.4 45.7 944.8 46.7 945.6 47.6L951.9 59.7 942.5 59.4C941.4 59.7 940.5 60.4 940.4 61.3 940.3 62.2 940.8 62.9 941.4 63.3 941.4 63.3 941.8 63.5 942.3 63.4L954.3 63.9 959.7 73.7 936.2 73.3C935 73.1 934 73.8 934.1 75.3 934.2 75.8 934.4 76.3 935 76.7 935.3 76.9 935.7 77.1 936 77.3L961.8 77.7 966 85.7 953.6 106 943.3 105.6 931.7 84.3C931.1 83 929.9 82.7 929 83.5 927.9 83.8 927.7 85 928.2 86.3L938.8 105.5 927.4 105.4 922.3 95.9C921.9 95.1 920.7 94.8 919.6 95.1 918.7 95.9 918 96.9 918.8 97.8L922.6 105.1 910.4 104.9C909.2 104.6 908.5 105.6 908.3 106.8 908.4 107.4 908.8 108.1 909.5 108.5 909.5 108.5 909.8 108.7 910.2 108.9L923.2 109.2 918.1 117.5C917.7 118.2 917.8 119.6 918.8 120.2 919.8 120.8 921.1 120.2 921.5 119.5L927.8 109.3 939.1 109.4 926.7 129.6C926.1 130.6 926.7 131.9 927.6 132.5S929.7 132.8 930.3 131.8L944 109.6 953.4 110 964.6 131 959.3 139.6 934.2 138.8C933.2 139.1 932.2 139.9 932 141.1 932.1 141.6 932.5 142.3 933.2 142.7 933.5 142.9 933.9 143.1 934.4 143L956.9 143.6 951 153.2 939.6 153.1C938.8 153 937.8 153.8 937.5 155 937.8 156.1 938.6 157 939.4 157.1L948.5 157.2 942 167.8C941.6 168.4 942 170.1 942.6 170.5 943.6 171.1 945.2 170.7 945.6 170L952.2 159.4 956 167.3C956.3 167.5 956.7 167.7 957 167.9 957.7 168.3 958.5 168.4 959.1 168.2 960 167.5 960.3 166.3 960 165.2L954.6 155.5 960.5 145.8 971.2 165.6C971.7 166.9 972.9 167.2 973.7 166.7 975 166.2 975.2 165 975 163.9L963 141.9 968.3 133.3 992.1 133.8 996.6 142.1 983 164.2C982.4 165.2 982.6 166.3 983.6 166.9 984.6 167.5 985.7 167.3 986.3 166.3L998.7 146.1 1004 156.1 997.6 166.4C997.2 167.1 997.6 168.7 998.6 169.3 999.6 169.9 1000.9 169.3 1001.3 168.7L1006.4 160.4 1012.5 171.9C1012.8 172.1 1012.8 172.1 1013.2 172.3 1013.8 172.7 1014.7 172.8 1015.2 172.7 1016.2 171.9 1016.5 170.7 1016 170ZM970.7 129.3L968.1 129.1 967.1 127 957.9 110 956.9 108 958.1 106 968.1 89.8 969.3 87.8 971.6 87.8 990.9 88.3 993.2 88.3 994.6 90.5 1003.4 107.4 1004.7 109.6 1003.5 111.6 993.5 127.8 992.3 129.8 989.7 129.6 970.7 129.3Z" fill="rgba(51, 121, 194, 0.58)"></path><path d="M1048.8 305.6L1063.3 307.4 1057.7 315.4C1057 316.2 1057.1 317.7 1058.1 318.8 1059.4 319.3 1060.8 319.2 1061.5 318.4L1069.1 307.9 1082.6 309.6 1066.9 330.8C1066 332.2 1066.1 333.6 1067.4 334.1 1068.4 335.2 1069.8 335.1 1070.7 333.7L1088 310.3 1100.3 311.6 1111.7 337.7 1105.4 346.5 1074.7 342.6C1074.2 342.8 1073.8 343 1073.4 343.2 1072.9 343.4 1072.3 344.2 1072 344.8 1071.7 346.5 1072.7 347.6 1074.2 347.4L1102.2 351 1094.2 361.6 1079.8 360.3C1079.6 359.8 1079.2 360 1078.8 360.2 1077.9 360.6 1077.2 361.4 1077.2 362.4 1077.1 363.5 1078.1 364.6 1079.3 365L1091 366.1 1081.1 379.6C1080.4 380.4 1080.6 381.8 1081.6 382.9 1082.8 383.4 1084.3 383.3 1084.9 382.5L1094.1 369.8 1098.1 378.8C1098.6 380 1100.3 380.3 1101.1 380 1102.4 379.4 1103.3 378 1102.8 376.7L1097.7 365.2 1105.8 354.5 1116.3 378.4C1116.8 379.7 1118.1 380.2 1119.3 379.7 1120.6 379.1 1121.1 377.9 1120.5 376.6L1109 350.1 1115.5 340.6 1144 343.9 1148.3 353.8 1130.7 377.7C1129.6 378.7 1130 380.6 1131.2 381.1 1132.2 382.2 1133.5 381.6 1134.5 380.7L1150.5 358.9 1155.9 371.3 1147.9 382C1147.2 382.8 1147.5 384.7 1148.3 385.3S1151 385.7 1152.1 384.7L1158.2 376.4 1164.7 391.4C1165.3 392.7 1166.9 393 1168.2 392.4 1169.1 392.1 1170 390.6 1169.4 389.4L1162.9 374.4 1173.5 375.4C1174.5 375.4 1175.8 374.8 1176.1 373.2 1176.2 372.1 1175 370.6 1173.9 370.6L1160.6 369.3 1155.2 356.9 1182 359.9C1183.5 359.8 1184.8 359.2 1185.1 357.6 1185.1 356.5 1183.9 355 1182.9 354.9L1153 351.7 1148.7 341.9 1165.5 318.7 1177 320.4 1188.5 346.9C1189.1 348.2 1190.3 348.6 1191.6 348.1 1192.9 347.5 1193.8 346.1 1193.2 344.8L1182.8 320.9 1196.1 322.2 1201.1 333.7C1201.7 335 1202.9 335.5 1204.2 334.9 1205.5 334.4 1206 333.1 1205.4 331.9L1201.5 322.9 1217.1 324.7C1218.1 324.8 1219.6 323.6 1219.7 322.6 1219.6 321.1 1219 319.8 1217.5 320L1201.3 317.9 1208.1 308.8C1208.5 307.6 1208.4 306.1 1207.6 305.4 1206.8 304.8 1205.8 304.7 1204.9 305.1 1204.9 305.1 1204.5 305.3 1204.2 305.9L1195.5 317.4 1182.2 316 1198.6 293.1C1199.7 292.1 1199.6 290.6 1198.2 289.7 1197.6 289.5 1197 289.2 1196.1 289.6 1195.7 289.8 1195.3 290 1194.8 290.1L1176.8 315.3 1166 313.9 1154.6 287.9 1162 278 1190.9 281.2C1192.6 281.5 1193.7 280.5 1193.5 279 1194 277.8 1193 276.7 1191.4 276.4L1165.2 273.6 1173.1 262.5 1185.9 264C1187 264 1188.1 263.1 1188.6 261.8 1188.4 260.4 1187.9 259.1 1186.4 259.2L1176.6 257.9 1185.2 246C1186.3 245 1185.7 243.7 1184.7 242.6 1184.1 242.4 1183.1 242.3 1182.2 242.7 1182.2 242.7 1181.8 242.9 1181.4 243.1L1172.2 255.7 1167.5 245.1C1167.1 244.2 1165.7 243.3 1164.4 243.9 1163.1 244.4 1162.8 246.1 1163.2 246.9L1169 260.2 1161.1 271.3 1149.7 245.2C1149.2 243.9 1147.5 243.6 1146.2 244.2S1144.4 246 1145 247.2L1157.5 275.9 1150.8 284.9 1122.3 281.6 1117.5 270.5 1135.4 246.3C1135.9 245.1 1135.8 243.6 1134.8 242.5 1134.2 242.3 1133.1 242.2 1132.3 242.6 1131.9 242.8 1131.4 243 1131.2 243.6L1115.2 265.3 1109.8 252.9 1117.7 241.9C1118.4 241.1 1118.2 239.6 1117.3 238.5 1116 238 1114.6 238.1 1113.9 238.9L1107.6 247.8 1101.6 234.1C1101.2 233.3 1099.4 232.5 1098.5 232.9 1097.2 233.5 1096.5 235.3 1096.9 236.2L1102.9 249.9 1092.5 248.3C1092.1 248.5 1091.6 248.7 1091.2 248.8 1090.4 249.2 1089.7 250 1089.5 250.6 1089.6 252.1 1090.6 253.2 1091.8 253.7L1105.1 255 1110.5 267.4 1083.7 264.3C1082.1 264 1081 265 1080.9 266.1 1080.6 267.7 1081.6 268.8 1082.8 269.3L1112.8 272.5 1117.6 283.6 1100.8 306.8 1089.5 305.6 1077 276.9C1076.5 275.7 1075.2 275.2 1073.9 275.7 1072.7 276.3 1072.2 277.5 1072.7 278.8L1084.1 304.9 1070.6 303.2 1064.9 289.9C1064.5 289 1062.6 288.3 1061.4 288.9 1060.1 289.4 1059.8 291.1 1060.1 292L1064.8 302.6 1049.2 300.8C1048.8 301 1048.8 301 1048.4 301.2 1047.5 301.5 1046.9 302.3 1046.6 303 1046.8 304.4 1047.7 305.5 1048.8 305.6ZM1119.9 288.8L1121.9 286.4 1124.6 286.7 1147.6 289.4 1150.3 289.7 1151.5 292.3 1160.6 313.2 1161.7 315.8 1160.2 318 1146.4 336.8 1144.9 339 1141.7 338.8 1119.1 336 1116 335.8 1114.9 333.2 1105.7 312.3 1104.6 309.7 1106.6 307.3 1119.9 288.8Z" fill="rgba(51, 121, 194, 0.58)"></path><path d="M421.7 319L416.3 327.2 413.2 321.4C412.9 320.7 412 320.4 411.1 320.7 410.4 321.2 410.1 322.2 410.3 322.8L414.3 330.5 409.3 338 401.3 322.3C400.7 321.4 399.8 321 399.2 321.6 398.2 321.9 397.9 322.8 398.4 323.8L407.2 341 402.8 348 383.9 347 380.5 340.6 391.9 323.4C391.9 323.1 392 322.8 392 322.5 392 322.2 391.7 321.5 391.4 321.2 390.5 320.6 389.6 320.8 389.2 321.7L378.8 337.4 374.8 329.4 379.9 321.3C380.2 321.3 380.2 321 380.2 320.7 380.3 320 380 319.4 379.4 319.1 378.8 318.7 377.8 319 377.2 319.6L373.1 326.2 368 316.3C367.7 315.7 366.8 315.3 365.8 315.6 365.2 316.2 364.8 317.1 365.1 317.7L369.9 327 363.4 326.7C362.5 326.6 361.8 327.5 361.8 328.1 361.7 329.1 362.3 330 363.2 330.1L371.6 330.5 375.6 338.5 358.2 337.6C357.3 337.6 356.6 338.2 356.6 339.1 356.5 340 357.1 340.7 358 340.7L377.3 341.7 381 348.4 370.5 364.4 363.4 364 354.3 346.4C354 345.5 352.8 345.1 352.2 345.7 351.2 346 351.2 346.9 351.4 347.9L359.7 363.9 350.7 363.4 346.7 355.4C346.4 354.8 345.2 354.4 344.6 354.7S343.5 356.2 343.8 357.1L346.9 363.2 336 362.7C335.1 362.6 334.4 363.5 334.4 364.4 334.4 365.1 334.9 366 335.9 366.1L346.8 366.6 343 372.7C342.7 373.3 342.6 374.2 343.5 374.9 344.1 375.2 345.4 375 345.7 374.4L350.5 366.8 359.5 367.3 349.7 382.4C349.3 383.3 349.3 384.2 350.2 384.9 350.8 385.2 352.1 385 352.4 384.4L363.2 367.5 370.4 367.8 379.2 384.8 374.8 391.1 355.5 390.1C354.6 390.1 353.9 390.7 353.9 391.6 353.9 392.5 354.4 393.5 355.4 393.5L372.8 394.4 368 402 359.6 401.5C358.7 401.5 358 402.1 358 403 358 404 358.5 404.6 359.5 404.6L366 405 360.3 413.7C359.9 414.3 360.2 415.6 360.8 415.9 361.7 416.3 362.6 416.3 363 415.4L369 406.4 372.4 413.1C373 413.7 373.9 414.1 374.6 413.8 375.2 413.5 375.6 412.9 375.6 412.3 375.6 412.3 375.6 412 375.3 411.7L371.1 403.1 375.8 395.5 384.6 412.2C384.9 413.1 385.8 413.5 386.8 412.9 387.1 412.6 387.4 412.3 387.5 411.7 387.5 411.4 387.5 411 387.5 410.7L377.8 392.5 381.9 386.5 400.8 387.4 404.5 394.8 394 411.1C393.4 412 393.6 412.9 394.5 413.3 395.1 413.9 396.1 413.7 396.8 412.8L406.2 398 410.5 406 405.8 413.2C405.4 413.8 405.7 414.8 406.3 415.4 407.2 415.8 408.1 415.8 408.5 414.9L412.2 409.5 416.7 418.1C417 419.1 417.9 419.1 418.9 418.9 419.2 418.6 419.5 418 419.6 417.3 419.6 417.3 419.6 417 419.6 416.7L414.8 407.4 422.5 407.8C423.2 407.9 424.1 407.3 424.2 406.4 424.2 405.4 423.3 404.8 422.7 404.7L413.1 404.2 408.8 396.2 427.8 397.2C428.7 397.2 429.4 396.3 429.4 395.4S428.9 393.8 427.9 393.8L407.1 392.7 403.7 386 414.2 370 422.3 370.4 431.3 388.3C431.9 389 432.8 389.4 433.8 389.1 434.1 388.8 434.4 388.2 434.5 387.6 434.5 387.3 434.5 386.9 434.2 386.6L426 370.6 435 371.1 439.3 379.1C439.5 379.7 440.5 380.1 441.4 379.8 442.1 379.2 442.4 378.3 442.1 377.7L438.7 371.3 448.7 371.8C449.3 371.8 450.3 370.9 450.3 370.3 450.3 369.4 449.5 368.4 448.8 368.4L438.9 367.9 442.9 362.1C442.9 361.8 443 361.5 443 361.2 443 360.6 442.7 359.9 442.4 359.6 441.5 359.3 440.6 359.5 439.9 360.1L435.2 367.7 426.2 367.2 436 352.1C436.6 351.2 436.4 350.3 435.8 349.9 434.8 349.3 433.9 349.5 433.2 350.1L422.4 367 414.3 366.6 405.5 349.7 409.6 343.3 430.4 344.4C431.4 344.4 432 343.8 432.1 342.9 432.1 342 431.5 341.3 430.6 341.3L411.6 340.3 416.7 332.8 426.3 333.3C426.9 333.3 427.9 332.4 428 331.5 428 330.5 427.1 329.9 426.5 329.8L418.7 329.5 424.5 320.7C424.5 320.4 424.5 320.4 424.5 320.1 424.5 319.5 424.2 318.8 423.9 318.5 423 318.1 422.1 318.4 421.7 319ZM410.6 366.4L411.5 368.3 410.4 369.8 402 382.8 401 384.3 399.1 384.2 383.9 383.5 382 383.4 381.2 381.8 374.1 368 373.2 366.4 374.3 364.6 382.7 351.9 383.7 350.1 385.6 350.2 400.8 351 402.7 351.1 403.5 353 410.6 366.4Z" fill="rgba(51, 121, 194, 0.58)"></path><path d="M580.7 1164.7L591.3 1148.2 597.7 1159.7C598.3 1160.9 600.2 1161.6 602 1161.1 603.3 1159.9 604 1158 603.4 1156.8L595.3 1141.5 605.1 1126.3 621.5 1157.4C622.6 1159.3 624.5 1160 625.8 1158.8 627.7 1158.2 628.4 1156.4 627.2 1154.5L609.1 1120.2 617.7 1106.2 655.6 1107.6 662.6 1120.3 640.2 1154.9C640.2 1155.6 640.2 1156.2 640.2 1156.8 640.1 1157.4 640.7 1158.7 641.3 1159.3 643.1 1160.7 645 1160.1 645.7 1158.3L666.1 1126.6 674.3 1142.5 664.4 1158.9C663.8 1158.9 663.7 1159.5 663.7 1160.1 663.7 1161.4 664.2 1162.6 665.5 1163.3 666.7 1164 668.6 1163.4 669.9 1162.2L677.8 1148.8 688.3 1168.5C688.9 1169.7 690.7 1170.4 692.6 1169.9 693.9 1168.7 694.6 1166.8 694 1165.6L684.1 1147.2 697.2 1147.6C699 1147.7 700.3 1145.9 700.4 1144.6 700.4 1142.8 699.3 1140.9 697.4 1140.8L680.6 1140.2 672.5 1124.3 707.3 1125.6C709.1 1125.6 710.4 1124.4 710.5 1122.6 710.6 1120.7 709.4 1119.4 707.5 1119.4L668.9 1118 661.3 1104.6 681.8 1072.4 696.1 1072.9 714.8 1107.8C715.3 1109.7 717.8 1110.4 719.1 1109.2 720.9 1108.6 721 1106.8 720.5 1104.9L703.5 1073.1 721.6 1073.8 729.7 1089.6C730.3 1090.9 732.8 1091.6 734 1091S736 1088 735.4 1086.1L729 1074 750.8 1074.8C752.7 1074.9 754 1073.1 754 1071.2 754.1 1069.9 752.9 1068 751 1068L729.3 1067.2 736.5 1055C737.2 1053.8 737.3 1051.9 735.5 1050.6 734.2 1049.9 731.7 1050.5 731.1 1051.7L721.8 1066.9 703.8 1066.3 722.9 1035.8C723.6 1034 723.7 1032.1 721.8 1030.8 720.6 1030.2 718.1 1030.7 717.4 1031.9L696.3 1066 682 1065.5 663.9 1031.9 672.4 1019.1 711 1020.5C712.9 1020.5 714.2 1019.3 714.2 1017.5 714.3 1015.6 713.1 1013.7 711.2 1013.6L676.4 1012.4 685.7 997.2 702.5 997.8C704.3 997.8 705.6 996.6 705.7 994.8 705.7 992.9 704.5 991.6 702.7 991.5L689.6 991.1 700.8 973.4C701.5 972.2 701 969.7 699.7 969 697.9 968.3 696 968.3 695.3 970.1L683.5 988.4 676.5 975.1C675.3 973.8 673.5 973.1 672.2 973.7 670.9 974.2 670.3 975.5 670.2 976.7 670.2 976.7 670.2 977.3 670.8 978L679.5 995.1 670.3 1010.3 652.1 977.3C651.6 975.4 649.7 974.7 647.8 975.9 647.2 976.5 646.5 977.1 646.5 978.3 646.5 979 646.5 979.6 646.4 980.2L666.3 1016.4 658.4 1028.6 620.5 1027.2 612.9 1012.6 633.4 979.7C634.7 977.9 634.1 976 632.3 975.4 631.1 974.1 629.2 974.6 627.9 976.4L609.4 1006.3 600.6 990.4 609.9 975.8C610.5 974.6 610 972.7 608.8 971.4 606.9 970.7 605.1 970.7 604.4 972.5L597.1 983.4 587.8 966.3C587.2 964.4 585.4 964.3 583.5 964.9 582.8 965.5 582.2 966.7 582.1 968 582.1 968 582.1 968.6 582.1 969.2L592 987.6 576.5 987.1C575.2 987 573.3 988.2 573.2 990.1 573.2 991.9 575 993.2 576.2 993.3L595.5 994 604.3 1009.8 566.4 1008.5C564.5 1008.4 563.2 1010.3 563.1 1012.1S564.2 1015.3 566.1 1015.3L607.8 1016.8 614.8 1030.1 594.3 1062.4 578.2 1061.8 559.5 1026.3C558.3 1025 556.5 1024.3 554.6 1024.9 553.9 1025.5 553.3 1026.7 553.2 1028 553.2 1028.6 553.2 1029.2 553.8 1029.8L570.7 1061.6 552.7 1060.9 543.9 1045.1C543.3 1043.8 541.5 1043.1 539.6 1043.7 538.3 1044.9 537.6 1046.7 538.2 1048L545.2 1060.7 525.3 1060C524.1 1059.9 522.1 1061.7 522.1 1063 522 1064.8 523.8 1066.8 525.1 1066.8L545 1067.5 537.1 1079.1C537.1 1079.7 537 1080.3 537 1080.9 537 1082.2 537.5 1083.4 538.1 1084.1 540 1084.8 541.9 1084.2 543.2 1083L552.4 1067.8 570.5 1068.4 551.3 1098.9C550 1100.7 550.6 1102.6 551.8 1103.2 553.6 1104.6 555.5 1104 556.8 1102.8L577.9 1068.7 594.1 1069.3 612.2 1102.9 604.3 1115.7 562.6 1114.2C560.7 1114.1 559.5 1115.3 559.4 1117.2 559.3 1119.1 560.5 1120.4 562.4 1120.4L600.3 1121.8 590.4 1137 571.2 1136.3C569.9 1136.3 568 1138.1 567.9 1139.9 567.9 1141.8 569.7 1143.1 570.9 1143.2L586.5 1143.7 575.3 1161.4C575.2 1162 575.2 1162 575.2 1162.6 575.2 1163.8 575.7 1165.1 576.3 1165.8 578.2 1166.4 580.1 1165.9 580.7 1164.7ZM601.5 1069.5L599.8 1065.7 601.8 1062.7 618.3 1036.5 620.3 1033.5 624 1033.6 654.5 1034.7 658.2 1034.8 659.9 1038 674.5 1065.3 676.3 1068.4 674.3 1072.1 657.8 1097.7 655.8 1101.3 652.1 1101.2 621.6 1100.1 617.9 1100 616.2 1096.2 601.5 1069.5Z" fill="rgba(51, 121, 194, 0.58)"></path><path d="M672 785.1L695.9 739.4 740 726 729.6 770.8 685.6 797.9C685.6 797.9 685.2 798.3 685.2 798.3 684.3 799.2 684.4 801 684.9 802.3 685.8 804 688 804.4 689.3 803L727.7 779.2 722.7 801 705.9 811.7C705.9 811.7 705.5 812.1 705.5 812.1 704.6 813.1 704.7 814.8 705.2 816.1 706.1 817.8 708.3 818.2 709.6 816.8L721.2 809.8 717.4 825.8C717 827.2 718.4 829.3 719.7 829.7 721.5 830.5 723.2 828.7 723.6 827.4L727.4 811.4 734.4 823C735.4 824.8 737.6 825.1 738.9 823.8 740.6 822.8 741 820.6 739.6 819.3L728.9 802.5 734.3 781.2 758.1 819.6C759 821.3 761.3 821.7 762.5 820.3 764.3 819.4 764.6 817.2 763.3 815.9L736.2 771.9 746.6 727.1 780.7 759 782.5 810.8C782.5 812.6 783.9 813.9 785.6 813.8 787.4 813.8 788.7 812.4 788.6 810.6L787.1 764.9 803.4 780.2 804.1 799.5C804.1 801.3 805.5 802.6 807.3 802.5 809 802.5 810.3 801.1 810.2 799.3L809.8 786.1 822.5 798C823.5 799.8 825.6 799.2 826.9 797.9 828.2 796.5 828.1 794.8 826.8 793.5L815 782.4 828.1 782C829.9 781.9 831.2 780.6 831.1 778.8S829.7 775.8 827.9 775.8L808.6 776.5 792.2 761.2 837.9 759.6C839.7 759.6 841 758.2 840.9 756.5 840.9 754.7 839.5 753.4 837.7 753.5L785.8 755.3 752.2 723.8 796.2 710.4 840.6 734C842.4 734.8 844.1 733.9 845.4 732.5 846.2 730.8 845.3 729 843.9 727.7L804 706.7 825.4 700.2 842.9 709.7C844.6 710.6 846.4 709.6 847.6 708.3 848.5 706.5 847.5 704.7 846.6 703.9L834.5 697.7 850.2 692.8C851.5 692.3 853.2 690.5 852.3 688.7 851.3 687 850 685.7 848.2 686.7L832.5 691.6 838.7 679.5C839.6 677.7 838.6 676 837.7 675.1 836.4 674.7 834.6 674.8 833.8 675.7 833.8 675.7 833.3 676.2 833.3 676.2L823.8 693.7 802.5 700.1 823.6 660.2C824.4 658.4 823.4 656.7 822.5 655.8 821.2 655.4 819.4 655.5 818.6 656.4 818.6 656.4 818.2 656.9 818.2 656.9L794.2 702.6 750.2 716 760.5 671.2 804.5 644.1C806.2 643.2 806.6 641 805.2 639.7 804.3 638 802.1 637.6 800.8 639L762.4 662.7 767.4 641 784.2 630.3C786 629.3 786.3 627.1 785 625.9 784 624.1 781.8 623.8 780.5 625.1L768.9 632.1 772.7 616.2C773.1 614.8 771.8 612.7 770.4 612.3 769.1 611.9 767.8 612.4 766.9 613.3 766.5 613.7 766.1 614.2 766.1 615.1L762.3 631 755.3 619.4C754.3 617.7 752.1 617.3 750.8 618.7 750.8 618.7 750.4 619.1 750.4 619.1 749.5 620 749.6 621.8 750.1 623.1L760.8 639.9 755.8 661.6 732 623.3C731.1 621.5 728.9 621.2 727.6 622.5 727.6 622.5 727.2 623 727.2 623 726.3 623.9 726.4 625.7 726.9 627L753.9 670.9 743.6 715.8 709.9 684.3 708.1 632.4C708.1 630.7 706.7 629.4 705 629.5 703.2 629.5 701.9 630.9 702 632.6L703.1 678 686.7 662.7 686.1 643.3C686 641.6 684.6 640.3 682.9 640.3S679.9 641.8 679.9 643.5L680.4 656.7 668.5 645.7C667.2 644.4 665.4 644.5 664.1 645.8 662.9 647.2 662.9 648.9 664.3 650.2L676.1 661.3 662.9 661.7C662 661.7 661.2 661.8 660.3 662.7S659.5 664.5 659.5 665.3C659.6 667.1 660.9 668.4 662.7 668.3L682.1 667.7 698.4 683 652.7 684.5C651.8 684.5 650.9 684.6 650.1 685.5 649.7 685.9 649.3 687.3 649.3 688.1 649.4 689.9 650.7 691.2 652.5 691.1L704.4 689.4 738 720.8 694 734.2 648.3 710.2C646.9 709.8 645.2 709.9 644.3 710.8 644.3 710.8 643.9 711.2 643.9 711.2 643.1 713 644 714.7 644.9 715.6L684.8 736.7 663.5 743.1 646 733.6C644.7 733.2 642.9 733.3 642.1 734.2 642.1 734.2 641.6 734.6 641.6 734.6 640.8 736.4 641.8 738.2 642.7 739L654.8 745.2 639.1 750.1C638.7 750.6 637.8 750.6 637.3 751.1 636.5 752 636.1 753.3 636.6 754.6 637.5 756.3 638.9 757.6 640.6 756.7L656.3 751.7 650.1 763.8C649.3 765.6 650.2 767.4 651.1 768.2 652.9 769 654.7 768.1 655.5 767.2L665 749.7 686.4 743.2 665.3 783.1C664.5 784.9 665.4 786.7 666.3 787.5 669 787.4 671.1 786.9 672 785.1Z" fill="rgba(51, 121, 194, 0.58)"></path><path d="M1316.9 526.7L1322.6 540.2 1312.8 539.4C1311.8 539.2 1310.5 540 1310.1 541.4 1310.3 542.7 1311.1 543.9 1312.2 544.1L1325.1 545.5 1330.3 558.1 1304.1 555C1302.5 554.9 1301.2 555.8 1301.4 557.1 1301 558.5 1301.8 559.7 1303.5 559.8L1332.4 563.1 1337.4 574.3 1320.5 597.3 1309.7 596.2 1297.7 567.7C1297.3 567.4 1297 567.1 1296.6 566.8 1296.2 566.6 1295.2 566.4 1294.5 566.5 1292.9 567.1 1292.5 568.5 1293.3 569.7L1304.3 595.7 1291 594 1285 580.9C1285.3 580.6 1284.9 580.3 1284.6 580 1283.8 579.4 1282.8 579.3 1281.8 579.7 1280.9 580.2 1280.5 581.6 1280.7 582.9L1285.6 593.5 1269 591.7C1267.9 591.5 1266.7 592.4 1266.3 593.8 1266.5 595.1 1267.3 596.3 1268.4 596.5L1284 598.1 1278.1 606C1277.3 607.1 1277.9 608.7 1278.6 609.3 1279.8 610.1 1281.4 610.2 1282.3 609L1289.7 598.9 1303 600.6 1287.5 621.6C1286.7 622.7 1286.9 624 1288 624.9 1289.1 625.7 1290.4 625.5 1291.3 624.4L1308.4 601.1 1319.9 602 1331.2 628.3 1324.9 637 1295.4 633.8C1294 633.3 1292.5 634.5 1292.7 635.8 1292.2 637.2 1293.3 638.1 1294.7 638.5L1321.6 641.5 1313.5 652.4 1300.3 650.7C1299.2 650.5 1297.7 651.8 1297.6 652.8S1298.6 655.3 1300 655.8L1310.2 656.9 1300.5 670C1299.7 671.2 1300.2 672.7 1301.4 673.6 1302.1 674.1 1303.8 674.2 1304.6 673.1L1314.3 659.9 1318.8 669.6C1319.3 670.5 1320.4 671.4 1322 670.8 1322.9 670.3 1323.6 668.5 1323.2 667.6L1317.7 655.4 1325.7 644.5 1336.4 669.3C1337.3 670.5 1338.4 671.3 1340 670.7 1340.9 670.3 1341.7 668.5 1341.2 667.6L1329 640 1335.4 631.4 1363.9 634.4 1368.2 645.1 1351 668.4C1350.2 669.5 1350.4 670.8 1351.5 671.7 1352.6 672.5 1354.3 672.6 1355.1 671.5L1370.6 650.4 1376.1 662.6 1368.7 672.7C1367.8 673.9 1368 675.2 1369.2 676 1370.3 676.8 1371.6 676.6 1372.4 675.5L1378.2 667.6 1384.4 682C1384.9 683 1386.7 683.7 1387.6 683.2 1388.8 682.4 1389.6 681.2 1388.8 680L1382.5 665 1393.7 666.3C1395 666.1 1396.2 665.2 1396.4 664.2 1396.6 663.2 1396.1 662.2 1395.4 661.7 1395.4 661.7 1395 661.4 1394.3 661.5L1380 659.7 1374.5 647.5 1402.6 650.2C1404 650.7 1405.3 649.9 1405.3 648.2 1405.2 647.5 1405.1 646.9 1404.4 646.3 1404 646 1403.6 645.8 1403.3 645.5L1372.4 642.5 1368.2 632.4 1385.1 609.5 1397.4 611 1409.1 637.6C1409.6 639.2 1411 639.6 1412.3 638.8 1413.6 638.6 1414 637.2 1413.4 635.6L1402.8 611.5 1416.3 612.8 1421.5 624.7C1421.9 625.6 1423.3 626.1 1424.7 625.9 1425.9 625 1426.7 623.9 1425.8 622.7L1422.1 613.6 1436.7 615.1C1438.1 615.5 1438.9 614.4 1439.4 613 1439.3 612.3 1438.8 611.4 1438.1 610.9 1438.1 610.9 1437.7 610.6 1437.3 610.3L1421.7 608.7 1428.6 599.3C1429.2 598.5 1429.3 596.8 1428.1 596 1427 595.2 1425.4 595.7 1424.9 596.5L1416.3 608.1 1402.8 606.8 1419.6 583.9C1420.5 582.8 1419.9 581.2 1418.8 580.4S1416.3 579.8 1415.5 580.9L1397 606.1 1385.7 604.7 1374.4 578.4 1381.6 568.7 1411.5 572.1C1412.8 571.9 1414 571.1 1414.5 569.7 1414.4 569 1413.9 568.1 1413.2 567.6 1412.8 567.3 1412.4 567 1411.8 567.1L1384.9 564.2 1393 553.3 1406.5 554.5C1407.6 554.7 1408.8 553.9 1409.2 552.5 1409 551.2 1408.2 550 1407.1 549.8L1396.3 548.8 1405.2 536.7C1405.7 536 1405.4 534 1404.7 533.5 1403.5 532.6 1401.6 532.9 1401 533.7L1392.2 545.7 1388.4 535.9C1388 535.7 1387.6 535.4 1387.2 535.1 1386.5 534.6 1385.4 534.4 1384.8 534.5 1383.6 535.3 1383.1 536.7 1383.3 538L1388.8 550.2 1380.8 561.1 1370.1 536.4C1369.5 534.8 1368.1 534.3 1367.2 534.8 1365.6 535.4 1365.1 536.8 1365.3 538.1L1377.5 565.6 1370.3 575.4 1341.8 572.3 1337.2 562 1355.8 536.9C1356.6 535.7 1356.4 534.4 1355.3 533.6 1354.2 532.8 1352.9 533 1352 534.1L1335.1 557 1329.9 544.4 1338.5 532.8C1339 532 1338.7 530.1 1337.6 529.3 1336.5 528.4 1334.9 529 1334.4 529.8L1327.4 539.1 1321.2 524.7C1320.9 524.4 1320.9 524.4 1320.5 524.2 1319.7 523.6 1318.7 523.4 1318.1 523.5 1316.9 524.4 1316.4 525.8 1316.9 526.7ZM1367 579.9L1370.1 580.4 1371.1 582.9 1380.3 604.2 1381.4 606.7 1379.7 609 1366.1 627.4 1364.5 629.7 1361.8 629.4 1338.7 626.9 1336 626.6 1334.6 623.8 1325.7 602.8 1324.3 600 1326 597.8 1339.5 579.4 1341.2 577.1 1344.3 577.6 1367 579.9Z" fill="rgba(51, 121, 194, 0.58)"></path><path d="M671.1 129.3L664.1 121 670.5 119.6C671.2 119.5 671.8 118.7 671.8 117.7 671.5 116.9 670.7 116.3 669.9 116.7L661.8 118.2 656.1 112 672.9 108.9C673.7 108.5 674.3 107.7 674.2 107 673.9 105.9 673.1 105.3 672.4 105.7L653.7 109.2 645.3 99.4 660.1 98.2 649.1 88.2 661.8 85.6 674.4 99.8C674.3 100.1 674.6 100.2 674.9 100.3 675.5 100.5 676.1 100.4 676.6 100 677.1 99.5 677.2 98.5 676.8 97.7L665.4 84.9 673.8 83.5 679.2 89.7C679.4 90.1 679.7 90.2 680 90.3 680.3 90.4 681 90.3 681.5 89.8 682 89.3 682 88.3 681.5 87.8L677.3 82.7 688 80.5C688.9 80.5 689.2 79.6 689.3 78.6 689.2 77.9 688.4 77.3 687.3 77.6L676.7 79.6 678.9 73.4C679.2 72.5 678.5 71.6 677.9 71.4 677 71.1 676.2 71.5 675.9 72.4L673.2 80.3 664.8 81.7 670.3 65.9C670.6 65 670.2 64.2 669.3 63.9 668.7 63.7 667.7 64 667.3 64.8L661.3 82.5 648.6 85 654.8 71.7 640.8 76.1 645 63.7 663.4 60.2C664.4 59.9 664.7 59 664.7 58.3 664.6 57.6 663.8 57 662.8 57L646.1 60.5 648.9 52.6 657.1 50.8C658 50.8 658.6 50 658.4 48.9 658.3 48.2 657.5 47.6 656.4 47.9L650.1 49 653.6 38.7C653.9 37.9 653.6 37.1 652.7 36.8S651 36.8 650.7 37.7L647.1 48 642.9 43.3C642.2 42.4 641.2 42.3 640.7 42.8 639.8 43.5 639.8 44.5 640.6 45.1L645.9 51.5 643.2 59.5 632.2 46.5C631.4 45.9 630.4 45.9 629.9 46.4 629.1 47.1 629 48 629.8 48.6L642.1 62.7 637.8 75.1 629.5 63 626.2 77.3 617.7 67.5 623.8 49.9C624.1 49 623.4 48.1 622.8 47.9 622 47.6 621.2 48 620.9 48.8L615.3 65 609.7 58.5 612.4 50.5C612.7 49.6 612.3 48.9 611.4 48.5 610.8 48.3 609.8 48.6 609.5 49.5L607.3 55.7 600.2 47.7C599.5 46.8 598.6 46.7 598 47.5 597.5 48 597.2 48.9 597.9 49.5L604.9 57.8 598.5 59.2C597.8 59.3 597.2 60.1 597.3 60.8 597.4 61.5 597.9 62 598.2 62.1 598.5 62.2 598.8 62.3 599.2 62.1L607.3 60.6 613 66.9 596.2 69.9C595.4 70.3 594.8 71.1 594.9 71.8 595 72.5 595.4 73 596 73.2 596.3 73.3 596.3 73.3 596.7 73.1L615.4 69.6 623.8 79.5 608.9 80.6 620 90.6 607.3 93.2 594.7 79C594.2 78.5 593.3 78.2 592.4 78.9 591.9 79.3 591.9 80.3 592.3 81.1L603.7 93.9 595.3 95.3 589.9 89.2C589.5 88.4 588.5 88.4 587.6 89 587.1 89.5 587.1 90.5 587.5 91.3L591.8 96.1 581.1 98.3C580.1 98.3 579.8 99.2 579.8 100.2 580 100.6 580.5 101.1 580.8 101.2 581.1 101.3 581.4 101.4 581.8 101.2L592.3 99.2 590.2 105.4C589.9 106.3 590.6 107.2 591.2 107.4L591.2 107.4C592.1 107.7 592.8 107.3 593.1 106.4L595.9 98.5 604.3 97.1 598.8 113C598.5 113.8 598.9 114.6 599.8 114.9S601.4 114.9 601.7 114L607.8 96.3 620.5 93.8 614.3 107.1 628.3 102.7 624.1 115.1 605.7 118.6C604.6 118.9 604.3 119.8 604.4 120.5 604.5 121.2 605.3 121.8 606.3 121.8L622.8 118.6 620.2 126.3 612 128.1C611 128 610.4 128.8 610.7 129.9 610.8 130.6 611.6 131.2 612.6 131.2L619 129.8 615.4 140.1C615.1 141 615.5 141.8 616.4 142.1S618.1 142 618.4 141.1L621.9 130.8 626.2 135.6C626.4 136 626.7 136.1 627 136.2 627.6 136.4 628 136.2 628.4 136 629.3 135.3 629.3 134.3 628.5 133.7L623.1 127.3 625.9 119.3 636.9 132.3C637.2 132.4 637.5 132.5 637.8 132.6 638.3 132.8 638.7 132.6 639.1 132.5 640 131.8 640 130.8 639.3 130.2L627 116.1 631.3 103.7 639.6 115.8 642.9 101.5 651.3 111.3 645.3 129C645 129.9 645.6 130.7 646.2 130.9 647.1 131.3 647.9 130.9 648.2 130L653.7 114.1 659.4 120.4 656.7 128.3C656.4 129.2 656.8 130 657.7 130.3S659.3 130.2 659.6 129.3L661.8 123.1 668.9 131.2C669.1 131.6 669.3 131.7 669.6 131.8 669.9 131.9 670.6 131.8 671.1 131.3 671.6 130.8 671.9 129.9 671.1 129.3ZM638.2 108.4L631.4 98.5 620 102.2 625.1 91.1 616.3 83.1 628.2 82 630.9 70.4 637.7 80.3 649.1 76.7 644.1 87.4 652.8 95.7 641 96.6 638.2 108.4Z" fill="rgba(51, 121, 194, 0.58)"></path><path d="M255.4 1144.5L240.7 1145.6 244.7 1136.6C245.2 1135.7 244.8 1134.3 243.6 1133.4 242.3 1133.2 240.9 1133.6 240.4 1134.5L234.9 1146.3 221.4 1147.2 232.6 1123.4C233.3 1121.8 232.8 1120.4 231.5 1120.2 230.3 1119.3 228.9 1119.7 228.3 1121.3L215.9 1147.6 203.7 1148.8 187.4 1125.4 191.8 1115.5 222.7 1113.3C223.1 1113 223.5 1112.7 223.9 1112.5 224.2 1112.2 224.7 1111.3 224.9 1110.6 224.8 1108.9 223.6 1108.1 222.2 1108.5L194 1110.5 199.9 1098.5 214.2 1097C214.5 1097.4 214.9 1097.1 215.2 1096.9 216 1096.3 216.5 1095.4 216.4 1094.4 216.2 1093.3 215 1092.5 213.7 1092.2L202.1 1093.5 209.2 1078.3C209.7 1077.4 209.2 1076 208 1075.1 206.7 1074.9 205.3 1075.3 204.8 1076.2L198.3 1090.5 192.7 1082.4C191.9 1081.3 190.2 1081.3 189.4 1081.9 188.3 1082.7 187.7 1084.2 188.5 1085.4L195.7 1095.7 189.8 1107.8 174.9 1086.3C174.1 1085.2 172.8 1084.9 171.6 1085.7 170.5 1086.5 170.3 1087.8 171.1 1089L187.6 1112.7 183.1 1123.3 154.5 1125.6 148.3 1116.8 160.9 1089.9C161.7 1088.7 161 1086.9 159.7 1086.6 158.6 1085.8 157.4 1086.6 156.5 1087.7L145.1 1112.2 137.4 1101.1 143.2 1089.1C143.7 1088.2 143 1086.4 142.1 1085.9S139.4 1086 138.5 1087.2L134.2 1096.5 124.8 1083.1C124 1082 122.4 1082 121.2 1082.8 120.4 1083.3 119.8 1084.9 120.6 1086.1L130 1099.4 119.4 1100.6C118.4 1100.7 117.2 1101.5 117.2 1103.2 117.4 1104.2 118.9 1105.5 119.9 1105.4L133.2 1104 140.9 1115.1 114.1 1117.4C112.6 1117.8 111.5 1118.6 111.5 1120.3 111.7 1121.3 113.1 1122.6 114.2 1122.4L144.1 1119.7 150.3 1128.5 138.3 1154.6 126.8 1155.2 110.2 1131.5C109.4 1130.3 108.1 1130.1 107 1130.9 105.8 1131.7 105.2 1133.2 106 1134.4L121 1155.8 107.7 1157.1 100.4 1146.8C99.6 1145.7 98.3 1145.4 97.2 1146.2 96 1147 95.8 1148.3 96.6 1149.5L102.2 1157.5 86.6 1158.8C85.6 1158.9 84.3 1160.4 84.4 1161.4 84.9 1162.8 85.7 1164 87.1 1163.5L103.4 1162.4 98.5 1172.6C98.3 1173.9 98.7 1175.3 99.6 1175.8 100.6 1176.3 101.6 1176.2 102.3 1175.6 102.3 1175.6 102.7 1175.4 102.8 1174.7L109.2 1161.8 122.5 1160.5 110.9 1186.2C110 1187.4 110.4 1188.8 112 1189.4 112.6 1189.5 113.3 1189.6 114 1189.1 114.4 1188.8 114.8 1188.6 115.2 1188.3L127.9 1160.1 138.8 1159.3 155.1 1182.7 149.7 1193.8 120.8 1196.3C119.1 1196.4 118.2 1197.6 118.6 1199 118.4 1200.3 119.6 1201.2 121.3 1201.1L147.5 1198.8 141.9 1211.2 129 1212.2C128 1212.4 127.1 1213.6 126.9 1214.9 127.3 1216.3 128.1 1217.4 129.5 1217L139.3 1216.4 133.3 1229.7C132.4 1230.9 133.2 1232.1 134.4 1233 135 1233.1 136.1 1232.9 136.8 1232.4 136.8 1232.4 137.2 1232.1 137.6 1231.9L144.2 1217.6 150.8 1227.2C151.4 1227.9 152.9 1228.5 154.1 1227.7 155.2 1226.9 155.2 1225.3 154.7 1224.5L146.4 1212.6 151.9 1200.2 168.2 1223.6C169 1224.7 170.7 1224.7 171.9 1223.9S173.2 1221.8 172.4 1220.6L154.5 1195 159.4 1184.8 187.9 1182.5 194.9 1192.4 182 1219.6C181.8 1220.9 182.2 1222.4 183.4 1223.2 184 1223.4 185.1 1223.2 185.8 1222.7 186.2 1222.4 186.6 1222.1 186.7 1221.5L198.1 1197 205.8 1208.1 200.3 1220.5C199.8 1221.5 200.2 1222.9 201.4 1223.8 202.7 1224 204.1 1223.6 204.6 1222.7L209 1212.7 217.6 1225C218.1 1225.7 220.1 1226.1 220.8 1225.5 222 1224.7 222.3 1222.8 221.8 1222L213.2 1209.8 223.7 1209.3C224.1 1209 224.5 1208.8 224.9 1208.5 225.6 1208 226.1 1207.1 226.2 1206.4 225.8 1205 224.6 1204.1 223.3 1203.9L210 1205.2 202.3 1194.1 229.2 1191.8C230.9 1191.8 231.7 1190.6 231.6 1189.6 231.6 1187.9 230.4 1187 229.1 1186.8L199.1 1189.5 192.1 1179.6 204.2 1153.5 215.4 1152.5 233.3 1178.2C234.1 1179.3 235.4 1179.5 236.5 1178.7 237.7 1177.9 237.9 1176.6 237.1 1175.5L220.8 1152.1 234.4 1151.2 242.7 1163.1C243.2 1163.8 245.2 1164.2 246.3 1163.4 247.5 1162.6 247.4 1160.9 246.9 1160.1L240.2 1150.6 255.8 1149.3C256.2 1149.1 256.2 1149.1 256.6 1148.8 257.4 1148.3 257.9 1147.3 258 1146.7 257.6 1145.3 256.4 1144.4 255.4 1144.5ZM188.9 1175L187.4 1177.7 184.7 1177.9 161.6 1179.8 158.9 1180 157.3 1177.7 144.2 1159 142.6 1156.7 143.7 1154.2 153.5 1133.1 154.6 1130.6 157.7 1130.2 180.4 1128.5 183.5 1128.1 185.1 1130.4 198.2 1149.1 199.8 1151.4 198.3 1154.2 188.9 1175Z" fill="rgba(51, 121, 194, 0.58)"></path><path d="M403.3 139.5L394.2 163.7 373.2 173 375.6 150.2 395.7 134C395.7 134 395.9 133.8 395.9 133.8 396.3 133.3 396.1 132.4 395.8 131.8 395.3 131 394.1 131 393.6 131.7L376 145.9 377.1 134.8 384.8 128.4C384.8 128.4 385 128.2 385 128.2 385.4 127.7 385.2 126.8 384.9 126.2 384.3 125.4 383.2 125.3 382.7 126.1L377.3 130.3 378.3 122.1C378.4 121.4 377.5 120.4 376.9 120.3 375.9 120 375.2 121 375.1 121.7L374.1 129.9 370 124.5C369.4 123.7 368.3 123.7 367.7 124.4 366.9 125 366.9 126.1 367.6 126.7L374 134.4 372.6 145.3 358.4 127.7C357.9 126.9 356.7 126.9 356.2 127.6 355.4 128.2 355.3 129.3 356.1 129.8L372.2 150 369.8 172.9 350.9 159.2 346.9 133.5C346.7 132.7 346 132.1 345.1 132.3 344.2 132.4 343.7 133.1 343.8 134L347.4 156.6 338.3 150 336.8 140.5C336.7 139.6 335.9 139.1 335.1 139.2 334.2 139.3 333.7 140.1 333.8 140.9L334.8 147.5 327.8 142.3C327.2 141.5 326.2 141.9 325.6 142.7 325.1 143.4 325.2 144.3 326 144.9L332.5 149.6 326 150.6C325.1 150.8 324.6 151.5 324.7 152.4S325.6 153.8 326.5 153.7L336 152.2 345.1 158.8 322.5 162.3C321.6 162.5 321.1 163.2 321.2 164.1 321.3 165 322.1 165.5 323 165.4L348.6 161.3 367.2 174.9 346.2 184.2 322.7 175.2C321.8 174.9 321 175.5 320.4 176.2 320.2 177.2 320.7 178 321.5 178.5L342.6 186.6 332.4 191.1 323.1 187.4C322.2 187.1 321.4 187.7 320.8 188.4 320.5 189.4 321.1 190.2 321.6 190.5L328 192.9 320.5 196.3C319.9 196.6 319.2 197.6 319.7 198.4 320.3 199.2 321 199.8 321.9 199.2L329.3 195.8 327 202.2C326.7 203.1 327.3 203.9 327.8 204.3 328.5 204.4 329.3 204.2 329.7 203.7 329.7 203.7 329.9 203.5 329.9 203.5L333.5 194.2 343.7 189.7 335.7 210.8C335.4 211.7 336 212.5 336.5 212.9 337.2 213 338 212.9 338.4 212.4 338.4 212.4 338.6 212.1 338.6 212.1L347.7 188 368.7 178.6 366.3 201.5 346.1 217.6C345.3 218.2 345.3 219.3 346.1 219.9 346.6 220.7 347.7 220.7 348.3 219.9L365.9 205.8 364.7 216.9 357.1 223.2C356.3 223.8 356.2 224.9 357 225.5 357.5 226.3 358.7 226.3 359.2 225.6L364.6 221.4 363.6 229.6C363.5 230.2 364.3 231.2 365 231.3 365.7 231.4 366.3 231.1 366.7 230.6 366.9 230.4 367.1 230.1 367 229.7L367.9 221.5 372.1 226.9C372.7 227.7 373.8 227.7 374.4 227 374.4 227 374.5 226.7 374.5 226.7 374.9 226.2 374.8 225.3 374.4 224.7L368.1 217 369.2 205.9 383.4 223.5C384 224.3 385.1 224.4 385.6 223.6 385.6 223.6 385.8 223.4 385.8 223.4 386.2 222.9 386 222 385.7 221.4L369.6 201.2 372 178.3 390.6 191.9 394.7 217.5C394.8 218.4 395.6 218.9 396.4 218.8 397.3 218.7 397.9 217.9 397.7 217L394.4 194.6 403.5 201.2 405 210.8C405.1 211.6 405.9 212.2 406.7 212S408.2 211.1 408 210.3L407 203.8 413.5 208.5C414.3 209.1 415.2 208.9 415.7 208.2 416.3 207.4 416.1 206.5 415.4 206L408.8 201.2 415.3 200.2C415.8 200.1 416.2 200.1 416.6 199.6S416.9 198.6 416.8 198.2C416.7 197.3 415.9 196.8 415 196.9L405.5 198.4 396.4 191.8 419 188.3C419.4 188.2 419.9 188.1 420.2 187.6 420.4 187.4 420.5 186.7 420.5 186.3 420.3 185.4 419.6 184.8 418.7 185L393.1 189 374.5 175.5 395.5 166.2 419.6 175.3C420.3 175.4 421.2 175.2 421.5 174.7 421.5 174.7 421.7 174.5 421.7 174.5 422 173.5 421.5 172.7 421 172.4L399.9 164.4 410.1 159.8 419.3 163.5C420 163.6 420.9 163.5 421.2 163 421.2 163 421.4 162.7 421.4 162.7 421.7 161.8 421.2 161 420.7 160.6L414.3 158.3 421.7 154.9C421.9 154.6 422.4 154.6 422.5 154.3 422.9 153.8 423 153.1 422.7 152.5 422.1 151.7 421.4 151.1 420.6 151.7L413.1 155.1 415.4 148.7C415.7 147.8 415.2 147 414.7 146.6 413.7 146.3 412.9 146.9 412.6 147.4L408.9 156.7 398.7 161.2 406.7 140.1C407 139.2 406.4 138.4 405.9 138 404.6 138.2 403.6 138.6 403.3 139.5Z" fill="rgba(51, 121, 194, 0.58)"></path></g><defs><mask id="SvgjsMask1212"><rect width="1400" height="1200" fill="#ffffff"></rect></mask><linearGradient x1="3.57%" y1="-4.17%" x2="96.43%" y2="104.17%" gradientUnits="userSpaceOnUse" id="SvgjsLinearGradient1213"><stop stop-color="#0e2a47" offset="0"></stop><stop stop-color="#00459e" offset="1"></stop></linearGradient><filter id="SvgjsFilter1214"><feGaussianBlur stdDeviation="1"></feGaussianBlur></filter></defs></svg>